<?xml version="1.0" encoding="UTF-8"?>
<svg version="1.1" xmlns="http://www.w3.org/2000/svg" width="867" height="288">
<path d="M0 0 C3.41417195 2.43954843 6.36411799 5.00441989 9.1875 8.125 C9.73019531 8.69863281 10.27289063 9.27226563 10.83203125 9.86328125 C29.73841886 30.41728433 35.17886871 59.96867877 34.47265625 87.078125 C33.4334794 109.91392758 25.33659019 130.79941702 9.1875 147.125 C8.61386719 147.74761719 8.04023437 148.37023437 7.44921875 149.01171875 C-2.46118793 159.537091 -17.18836075 170.39498159 -32.046875 171.328125 C-39.25467005 171.42422893 -45.23559664 171.16432655 -51.8125 168.125 C-52.51375 167.83109375 -53.215 167.5371875 -53.9375 167.234375 C-71.26145171 158.94362668 -83.51503586 138.43380882 -89.91015625 121.16015625 C-91.94988242 113.94047432 -92.10844157 106.70315988 -92.1875 99.25 C-92.20159912 98.26265869 -92.21569824 97.27531738 -92.23022461 96.25805664 C-92.18206843 89.07912898 -91.26403459 84.13688536 -86.625 78.4375 C-76.81785391 70.37384654 -65.31187141 70.32887583 -53.13037109 70.8984375 C-47.57227596 71.44171876 -42.79788727 73.76092201 -37.8125 76.125 C-23.32754053 82.77536971 -23.32754053 82.77536971 -7.8125 82.125 C-5.29764481 72.06557923 -7.03393184 62.9873534 -11.875 54 C-17.16334802 45.51705807 -22.35980915 41.50325715 -32.0625 38.9375 C-36.78066798 37.84654134 -41.53830614 36.9874441 -46.3046875 36.13671875 C-47.23893555 35.96744873 -48.17318359 35.79817871 -49.13574219 35.6237793 C-50.96437866 35.29823866 -52.79578462 34.98778965 -54.62988281 34.69458008 C-60.00950768 33.76230972 -63.5023329 32.49905268 -67.8125 29.125 C-68.43125 28.691875 -69.05 28.25875 -69.6875 27.8125 C-71.62890971 24.90038544 -71.21472004 22.51514032 -70.8125 19.125 C-64.34263879 7.64327447 -50.49024287 2.04404922 -38.8125 -2.875 C-37.61367187 -3.41833984 -37.61367187 -3.41833984 -36.390625 -3.97265625 C-24.61166355 -8.73295082 -10.51802725 -6.70114051 0 0 Z M-57.875 111.875 C-59.36694726 115.45567343 -58.99562062 118.54202677 -57.8125 122.125 C-54.2899233 128.30245988 -48.20119584 132.31059655 -41.8125 135.125 C-36.95954564 136.44917332 -33.35669214 136.84982488 -28.75 134.6875 C-25.46110228 130.33766753 -25.48265056 126.54733185 -26.1875 121.37109375 C-27.48530805 115.40928804 -29.20766441 111.85586209 -34.09375 108.1484375 C-42.16597997 103.34179147 -51.18275035 106.19672757 -57.875 111.875 Z " fill="#D92728" transform="translate(95.8125,39.875)"/>
<path d="M0 0 C3.09379046 4.39118646 3.31737606 7.73155735 3 13 C2.28643279 16.22700107 1.31519656 19.35239415 0.3125 22.5 C0.04356934 23.37350098 -0.22536133 24.24700195 -0.50244141 25.14697266 C-1.77948373 29.26222089 -3.10762459 33.35604651 -4.51171875 37.4296875 C-4.74221924 38.10064453 -4.97271973 38.77160156 -5.21020508 39.46289062 C-5.83430998 41.25796575 -6.47517602 43.04718853 -7.1171875 44.8359375 C-8.06058894 48.21715506 -8.62140051 50.52971716 -8 54 C-3.78694838 57.72871656 1.05402331 59.21008862 6.3125 60.875 C19.74399763 65.39310382 19.74399763 65.39310382 24 70 C24.8125 72.52734375 24.8125 72.52734375 25 75 C20.25811601 82.90313999 12.2058693 85.9864279 3.875 88.6875 C2.12212491 89.27393039 0.36951227 89.86114596 -1.3828125 90.44921875 C-2.59179199 90.85019775 -2.59179199 90.85019775 -3.82519531 91.25927734 C-6.25449986 92.0866808 -8.63489216 93.00390687 -11 94 C-10.38125 94.9075 -9.7625 95.815 -9.125 96.75 C-7.55610389 99.14948817 -6.19556179 101.40961612 -5 104 C-4.34 104 -3.68 104 -3 104 C-1.5546875 105.43359375 -1.5546875 105.43359375 0.125 107.4375 C3.49378571 111.41621323 6.9703982 115.2770561 10.49609375 119.1171875 C12 121 12 121 12 123 C12.66 123 13.32 123 14 123 C15.615507 124.83844086 17.0958339 126.67204025 18.5625 128.625 C19.00360107 129.20894531 19.44470215 129.79289063 19.89916992 130.39453125 C29.79260281 143.6588372 40.56055586 158.62777437 39 176 C37.28096354 181.96606771 34.20143107 185.73774323 29 189 C17.3319513 193.82872637 3.45039519 191.16488393 -8 187 C-15.02018486 184.02710277 -21.84460176 180.51704412 -28 176 C-28 175.34 -28 174.68 -28 174 C-28.59167969 173.731875 -29.18335938 173.46375 -29.79296875 173.1875 C-43.11985434 166.01692793 -50.96443633 147.50337081 -55.44140625 133.78125 C-55.8681018 132.35751355 -56.28337442 130.93030664 -56.6875 129.5 C-56.89246094 128.7766748 -57.09742188 128.05334961 -57.30859375 127.30810547 C-58.49748054 122.79284467 -59.22985915 118.36777069 -59.74609375 113.7265625 C-60.9770218 100.97791208 -60.9770218 100.97791208 -68.15625 90.984375 C-72.14689203 88.28390127 -76.35179877 86.11328668 -80.71679688 84.08447266 C-83.77827981 82.63033374 -86.53233458 80.90712579 -89.375 79.0625 C-90.61830078 78.26392578 -90.61830078 78.26392578 -91.88671875 77.44921875 C-95.5503647 74.9368109 -98.48813846 72.90784756 -99.6875 68.4375 C-98.6331068 64.69919682 -96.29683207 63.89070072 -93 62 C-89.7043457 61.08691406 -89.7043457 61.08691406 -86.17578125 60.515625 C-84.90025391 60.30292969 -83.62472656 60.09023437 -82.31054688 59.87109375 C-80.97788147 59.66395386 -79.64519899 59.45692374 -78.3125 59.25 C-76.96788724 59.02862589 -75.62348312 58.80598056 -74.27929688 58.58203125 C-64.58567061 57 -64.58567061 57 -61 57 C-60.88785156 56.36707031 -60.77570313 55.73414063 -60.66015625 55.08203125 C-56.68929945 36.54353412 -50.11218041 14.40400521 -33.8125 3.125 C-23.83980788 -2.77106352 -10.49728438 -6.29837063 0 0 Z " fill="#D92728" transform="translate(301,19)"/>
<path d="M0 0 C1.54399799 6.57937881 -0.89361272 12.32421835 -4 18 C-7.94234465 24.2996381 -12.3576334 30.24603363 -16.8125 36.1875 C-30.61872764 54.82345522 -47.11593829 77.4501832 -44 102 C-41.85245277 110.40644157 -37.90072282 115.2005318 -30.75 120 C-19.50496453 126.44229572 -6.68554913 128.55903149 6.04418945 129.83666992 C12.40493539 130.56021006 12.40493539 130.56021006 15.5 132.84765625 C16.90236578 134.85990507 17.88512314 136.56526777 18.6875 138.875 C18.91824219 139.51179687 19.14898437 140.14859375 19.38671875 140.8046875 C22.17917275 150.80060562 22.47886721 162.47125463 18 172 C15.625 174.875 15.625 174.875 13 177 C12.29875 177.70125 11.5975 178.4025 10.875 179.125 C2.34569152 184.68759248 -8.12974816 184.93507649 -18 184 C-22.20634223 183.06637273 -26.04526056 181.69728902 -30 180 C-31.24136719 179.49146484 -31.24136719 179.49146484 -32.5078125 178.97265625 C-40.16595351 175.51294946 -46.62592518 170.38862804 -53 165 C-53.78624756 164.34499512 -53.78624756 164.34499512 -54.58837891 163.67675781 C-68.03221606 152.22819363 -75.59243748 135.87729148 -80 119 C-80.18256348 118.31574951 -80.36512695 117.63149902 -80.55322266 116.92651367 C-82.45938392 108.84442388 -82.39618245 100.69125953 -82.375 92.4375 C-82.37478851 91.68021606 -82.37457703 90.92293213 -82.37435913 90.1427002 C-82.34302181 78.92126528 -81.67605362 68.6906871 -78 58 C-77.63777344 56.80503906 -77.27554688 55.61007813 -76.90234375 54.37890625 C-69.13811012 30.34926115 -53.31017985 14.47630979 -31 3 C-27.38830326 1.45006062 -23.75288744 0.16188466 -20 -1 C-19.29101562 -1.2371875 -18.58203125 -1.474375 -17.8515625 -1.71875 C-11.62224358 -3.59000786 -5.46016896 -3.64011264 0 0 Z " fill="#D92728" transform="translate(220,26)"/>
<path d="M0 0 C4.62 0 9.24 0 14 0 C14 92.4 14 184.8 14 280 C9.38 280 4.76 280 0 280 C0 187.6 0 95.2 0 0 Z " fill="#2591CD" transform="translate(374,0)"/>
<path d="M0 0 C11.45111304 6.12898327 11.45111304 6.12898327 14.8828125 11.54296875 C14.8828125 14.16796875 14.8828125 14.16796875 13.8828125 16.54296875 C9.50712128 19.03854601 5.18634987 18.7086497 0.3203125 18.41796875 C-0.56156738 18.3715625 -1.44344727 18.32515625 -2.35205078 18.27734375 C-13.2913865 17.60717968 -24.18022214 16.29328181 -35.06079102 15.00341797 C-49.38879443 13.31257077 -63.63164866 12.35604583 -78.06103516 12.35766602 C-80.24791493 12.35546298 -82.43430121 12.33715632 -84.62109375 12.31835938 C-100.08627432 12.254961 -120.03821999 13.42914877 -132.1171875 24.54296875 C-136.86100485 30.34774267 -137.91260012 36.6153338 -138.7578125 43.91796875 C-139.1171875 46.54296875 -139.1171875 46.54296875 -140.1171875 47.54296875 C-143.27231684 47.94404451 -144.65585995 47.88347241 -147.25 45.96875 C-154.89550522 37.85851799 -157.45419207 32.62405355 -157.33203125 21.453125 C-156.86760844 15.16230696 -153.72373629 11.56144748 -149.1171875 7.54296875 C-145.9142373 4.97193522 -142.59791574 2.72240512 -139.1171875 0.54296875 C-138.28453369 0.0018042 -138.28453369 0.0018042 -137.43505859 -0.55029297 C-127.40094391 -6.89097012 -127.40094391 -6.89097012 -122.05908203 -6.18505859 C-118.62465121 -5.20065724 -115.51982042 -3.76264552 -112.359375 -2.11328125 C-103.78646244 2.26613432 -92.08513484 1.76918168 -82.9921875 -0.89453125 C-76.95626283 -3.1549318 -71.96564567 -6.71277279 -66.83203125 -10.53125 C-51.30554999 -21.54499858 -15.51991769 -7.56547366 0 0 Z " fill="#2491CE" transform="translate(157.1171875,210.45703125)"/>
<path d="M0 0 C4.62 0 9.24 0 14 0 C15.46305919 8.77835513 16.51026072 17.50826863 17.30224609 26.37011719 C17.37910645 27.2005957 17.4559668 28.03107422 17.53515625 28.88671875 C17.600979 29.63139404 17.66680176 30.37606934 17.73461914 31.14331055 C17.91293586 33.08933664 17.91293586 33.08933664 19 35 C19.81641189 30.66739431 20.62742411 26.33379444 21.4375 22 C21.66759766 20.77925781 21.89769531 19.55851562 22.13476562 18.30078125 C23.27045141 12.21087194 24.3301597 6.15945102 25 0 C29.62 0 34.24 0 39 0 C41.86004214 12.58418543 43.94526392 25.26346179 46 38 C46.11593506 36.88439697 46.23187012 35.76879395 46.35131836 34.61938477 C46.78112818 30.49472549 47.2167018 26.37069209 47.65405273 22.24682617 C47.84281094 20.45923228 48.02998904 18.67147082 48.21557617 16.88354492 C48.48204539 14.31904513 48.7541239 11.75519448 49.02734375 9.19140625 C49.1508445 7.98515343 49.1508445 7.98515343 49.27684021 6.75453186 C49.88612829 1.11387171 49.88612829 1.11387171 51 0 C55.33315059 -0.1438629 59.66512361 -0.04208618 64 0 C63.40210261 9.76191078 62.42894558 19.41171258 61.1875 29.11328125 C61.01175473 30.50332555 60.83622187 31.89339671 60.66088867 33.28349304 C60.29693594 36.16189472 59.93023785 39.03992914 59.56152344 41.91772461 C59.08854664 45.61135015 58.62303865 49.30587483 58.15953064 53.00069904 C57.80057504 55.85512721 57.43760153 58.70903317 57.07339478 61.56279564 C56.89986462 62.92664463 56.72763755 64.29066008 56.55673218 65.65484047 C56.31929015 67.54556272 56.07581949 69.43552499 55.83203125 71.32543945 C55.69514893 72.40018021 55.5582666 73.47492096 55.41723633 74.58222961 C55 77 55 77 54 78 C51.64686445 78.07271741 49.29166332 78.08370868 46.9375 78.0625 C45.00197266 78.04896484 45.00197266 78.04896484 43.02734375 78.03515625 C42.02832031 78.02355469 41.02929688 78.01195312 40 78 C37.92858192 67.32905839 36.07794535 56.63374395 34.35839844 45.90039062 C34.19629883 44.90458984 34.03419922 43.90878906 33.8671875 42.8828125 C33.72394043 41.98965332 33.58069336 41.09649414 33.43310547 40.17626953 C33.09264943 37.96527114 33.09264943 37.96527114 32 36 C29.69 49.86 27.38 63.72 25 78 C20.05 78 15.1 78 10 78 C8.84289469 69.15907393 7.68653219 60.31805154 6.53144932 51.476861 C5.9949749 47.37082588 5.45818485 43.26483255 4.9206543 39.15893555 C4.40118085 35.19087404 3.88256156 31.22270173 3.3645153 27.25445366 C3.16747917 25.74629235 2.97014383 24.23817011 2.77249336 22.73008919 C1.78057985 15.16028604 0.80408371 7.59247703 0 0 Z " fill="#5E5E5E" transform="translate(802,209)"/>
<path d="M0 0 C6.27 0 12.54 0 19 0 C19.41378906 2.49820313 19.41378906 2.49820313 19.8359375 5.046875 C21.07027349 12.45289095 22.34607615 19.85157425 23.625 27.25 C23.85680263 28.59244243 24.08857364 29.93489031 24.3203125 31.27734375 C24.87989908 34.51828271 25.43980068 37.7591669 26 41 C26.25692627 39.29686646 26.25692627 39.29686646 26.51904297 37.55932617 C27.15633856 33.3481896 27.80348071 29.13861557 28.45361328 24.92944336 C28.73364905 23.10726389 29.01101055 21.28467135 29.28564453 19.46166992 C29.68079994 16.84180385 30.08554027 14.22357252 30.4921875 11.60546875 C30.6131076 10.78974899 30.73402771 9.97402924 30.85861206 9.1335907 C31.43494888 5.47995006 31.92011604 3.11982594 34 0 C39.94 0 45.88 0 52 0 C52 25.74 52 51.48 52 78 C48.04 78 44.08 78 40 78 C39.67 62.16 39.34 46.32 39 30 C36.73847952 44.67399972 36.73847952 44.67399972 34.48266602 59.34887695 C34.19828648 61.18704376 33.91371316 63.02518061 33.62890625 64.86328125 C33.48287964 65.81956421 33.33685303 66.77584717 33.18640137 67.7611084 C33.04440308 68.6743689 32.90240479 69.58762939 32.75610352 70.52856445 C32.63396988 71.32132278 32.51183624 72.11408112 32.38600159 72.93086243 C32 75 32 75 31 78 C27.37 78 23.74 78 20 78 C17.69 62.82 15.38 47.64 13 32 C12.34 47.18 11.68 62.36 11 78 C7.37 78 3.74 78 0 78 C0 52.26 0 26.52 0 0 Z " fill="#5E5E5E" transform="translate(535,209)"/>
<path d="M0 0 C1.90469515 2.53249969 2.28287912 4.7522708 2.8984375 7.859375 C3.26582031 9.70982422 3.26582031 9.70982422 3.640625 11.59765625 C4.668535 17.22969055 5.55223749 22.88662782 6.39648438 28.54882812 C6.57147461 29.71381836 6.57147461 29.71381836 6.75 30.90234375 C6.90202881 31.93911255 6.90202881 31.93911255 7.05712891 32.99682617 C7.39363638 35.07839046 7.39363638 35.07839046 8.3984375 37.859375 C10.3784375 25.319375 12.3584375 12.779375 14.3984375 -0.140625 C20.6684375 -0.140625 26.9384375 -0.140625 33.3984375 -0.140625 C33.3984375 24.279375 33.3984375 48.699375 33.3984375 73.859375 C29.4384375 73.859375 25.4784375 73.859375 21.3984375 73.859375 C20.9034375 53.069375 20.9034375 53.069375 20.3984375 31.859375 C18.54794081 43.76417493 18.54794081 43.76417493 16.71948242 55.67236328 C16.4817485 57.17493013 16.24327205 58.67737976 16.00390625 60.1796875 C15.83260193 61.33198853 15.83260193 61.33198853 15.65783691 62.50756836 C14.91249255 67.11312906 13.73947978 70.74897354 11.3984375 74.859375 C8.4284375 74.529375 5.4584375 74.199375 2.3984375 73.859375 C2.2219165 72.76471924 2.04539551 71.67006348 1.86352539 70.54223633 C1.20659131 66.46998075 0.54842539 62.39792506 -0.11010742 58.32592773 C-0.39462192 56.56556515 -0.67880506 54.80514897 -0.96264648 53.04467773 C-1.37135518 50.51011118 -1.78126622 47.97574153 -2.19140625 45.44140625 C-2.31748764 44.65788284 -2.44356903 43.87435944 -2.57347107 43.0670929 C-2.69352005 42.32670273 -2.81356903 41.58631256 -2.93725586 40.82348633 C-3.0416246 40.17728836 -3.14599335 39.53109039 -3.25352478 38.86531067 C-3.66006915 36.52216854 -4.13516908 34.1913421 -4.6015625 31.859375 C-5.2615625 45.719375 -5.9215625 59.579375 -6.6015625 73.859375 C-10.2315625 73.859375 -13.8615625 73.859375 -17.6015625 73.859375 C-17.6015625 49.439375 -17.6015625 25.019375 -17.6015625 -0.140625 C-2.54626296 -1.81343606 -2.54626296 -1.81343606 0 0 Z " fill="#5D5D5D" transform="translate(528.6015625,7.140625)"/>
<path d="M0 0 C31.77777778 0 31.77777778 0 36.5 4.25 C39.68451827 10.0882835 40.38861568 15.28650678 40.375 21.8125 C40.37258301 23.00963623 40.37258301 23.00963623 40.37011719 24.23095703 C40.2152327 31.66389405 38.70352403 36.92098652 33.75 42.5625 C33.1725 43.036875 32.595 43.51125 32 44 C32.92377441 45.05755493 32.92377441 45.05755493 33.86621094 46.13647461 C36.04104177 49.05507768 37.05165396 51.36548495 38.140625 54.81640625 C38.48867188 55.91017578 38.83671875 57.00394531 39.1953125 58.13085938 C39.71738281 59.82952148 39.71738281 59.82952148 40.25 61.5625 C40.61351562 62.69880859 40.97703125 63.83511719 41.3515625 65.00585938 C44 73.44402021 44 73.44402021 44 78 C38.72 78 33.44 78 28 78 C27.38511719 76.18113281 26.77023437 74.36226563 26.13671875 72.48828125 C25.32061437 70.09625116 24.50419146 67.70432972 23.6875 65.3125 C23.28337891 64.11431641 22.87925781 62.91613281 22.46289062 61.68164062 C22.06650391 60.52470703 21.67011719 59.36777344 21.26171875 58.17578125 C20.90037842 57.11270752 20.53903809 56.04963379 20.16674805 54.9543457 C19.02615911 52.066238 17.73094821 49.57486351 16 47 C15.67 47 15.34 47 15 47 C14.34 57.23 13.68 67.46 13 78 C8.71 78 4.42 78 0 78 C0 52.26 0 26.52 0 0 Z M13 16 C13.33 20.95 13.66 25.9 14 31 C15.8871875 31.061875 15.8871875 31.061875 17.8125 31.125 C18.52019531 31.14820313 19.22789062 31.17140625 19.95703125 31.1953125 C22.31359719 31.13254462 22.31359719 31.13254462 25 29 C26.12106316 23.8599905 26.12106316 23.8599905 25.36328125 18.7890625 C24.09508911 16.73128426 24.09508911 16.73128426 21.3984375 16.390625 C19.90183594 16.32101563 19.90183594 16.32101563 18.375 16.25 C16.60125 16.1675 14.8275 16.085 13 16 Z " fill="#5D5D5D" transform="translate(704,209)"/>
<path d="M0 0 C30.95454545 0 30.95454545 0 35.8125 4.75 C41.23236287 12.80236769 41.16958812 22.44847907 39.5 31.80078125 C38.03503851 36.75334993 35.9448111 39.694888 32 43 C33.53693433 46.92690399 35.22782545 50.77061922 36.9375 54.625 C40.27175283 62.30188912 43 69.5720445 43 78 C38.05 78 33.1 78 28 78 C25.30268204 71.98906294 23.27505706 65.8758592 21.33789062 59.58398438 C21.09361328 58.82279297 20.84933594 58.06160156 20.59765625 57.27734375 C20.38633057 56.59921631 20.17500488 55.92108887 19.95727539 55.22241211 C18.74826088 52.23176012 18.74826088 52.23176012 15 47 C14.34 57.23 13.68 67.46 13 78 C8.71 78 4.42 78 0 78 C0 52.26 0 26.52 0 0 Z M13 16 C13 21.28 13 26.56 13 32 C14.423125 31.896875 15.84625 31.79375 17.3125 31.6875 C18.11300781 31.62949219 18.91351562 31.57148438 19.73828125 31.51171875 C22.47098509 30.89343861 23.41979798 30.30952602 25 28 C25.36213568 25.48710325 25.36213568 25.48710325 25.1875 22.8125 C25.14689453 21.46091797 25.14689453 21.46091797 25.10546875 20.08203125 C25.05326172 19.05142578 25.05326172 19.05142578 25 18 C20.69214025 16.64851459 17.58042408 16 13 16 Z " fill="#5D5D5D" transform="translate(653,209)"/>
<path d="M0 0 C4.29 0.33 8.58 0.66 13 1 C16.60686637 8.83112428 20.01897517 16.72012099 23.3125 24.6875 C24.859375 28.420625 26.40625 32.15375 28 36 C28.66 24.45 29.32 12.9 30 1 C33.96 1 37.92 1 42 1 C42 25.42 42 49.84 42 75 C37.71 75 33.42 75 29 75 C25.25297158 67.86280301 22.25710808 60.47362752 19.25 53 C17.5175 48.71 15.785 44.42 14 40 C13.67 51.55 13.34 63.1 13 75 C8.71 75 4.42 75 0 75 C0 50.25 0 25.5 0 0 Z " fill="#5E5E5E" transform="translate(599,6)"/>
<path d="M0 0 C8.11167766 7.357103 11.10596354 15.10625378 11.97241211 26.02929688 C12.08858377 29.83672931 12.09712672 33.62856107 12.0625 37.4375 C12.07410156 38.71367187 12.08570313 39.98984375 12.09765625 41.3046875 C12.0641438 52.22974581 10.78417491 62.18737254 4.6875 71.4375 C4.0275 71.4375 3.3675 71.4375 2.6875 71.4375 C2.6875 72.0975 2.6875 72.7575 2.6875 73.4375 C-3.72726102 77.31056326 -8.83677684 78.47427912 -16.3125 77.4375 C-22.36254891 75.86511207 -25.86303515 72.45066158 -28.9921875 67.1328125 C-36.94612175 50.8954911 -36.65139095 30.55811983 -31.578125 13.42578125 C-28.81885778 6.91084476 -24.78897227 0.9671478 -18.1875 -1.9375 C-11.79326285 -2.96882857 -5.91057526 -2.7880072 0 0 Z M-18.3125 21.4375 C-20.58215883 25.97681765 -19.58769983 32.20419751 -19.625 37.1875 C-19.65400391 38.46367187 -19.68300781 39.73984375 -19.71289062 41.0546875 C-19.98122545 48.46187208 -19.98122545 48.46187208 -17.5078125 55.25390625 C-15.37052521 57.69645212 -15.37052521 57.69645212 -11.875 58.625 C-8.18441175 58.76588065 -8.18441175 58.76588065 -5.4375 56.25 C-1.28468828 50.75363154 -2.12912991 44.70339476 -2.125 38.0625 C-2.10663086 36.51949219 -2.10663086 36.51949219 -2.08789062 34.9453125 C-2.07563371 28.60440433 -2.13456094 23.29135118 -6.125 18.0625 C-8.20464493 16.29100119 -8.20464493 16.29100119 -10.75 15.875 C-14.40478591 16.67727008 -15.92096807 18.64737942 -18.3125 21.4375 Z " fill="#5D5D5D" transform="translate(786.3125,210.5625)"/>
<path d="M0 0 C8.93885354 9.17408653 10.3735426 23.76953211 10.49609375 36.09765625 C10.31109226 48.13062527 8.69441233 62.02102259 -0.00390625 71.06640625 C-4.84352527 75.15967439 -10.00161273 76.01008677 -16.13671875 75.77734375 C-21.97883432 74.979441 -26.08525466 72.48137387 -29.875 68 C-35.11304098 60.34989111 -37.24294353 50.60685529 -37.625 41.4375 C-37.66496094 40.6846875 -37.70492187 39.931875 -37.74609375 39.15625 C-38.10374758 26.19655816 -36.12827086 12.27555792 -28.625 1.4375 C-19.6408131 -6.66506108 -10.11419662 -6.02035513 0 0 Z M-19.2578125 16.72265625 C-23.60412638 22.17417566 -22.99157444 29.20685806 -23 35.8125 C-23.02449219 36.81539062 -23.04898438 37.81828125 -23.07421875 38.8515625 C-23.10031468 45.49732535 -22.18516996 49.78622649 -18.625 55.4375 C-15.5417365 56.97913175 -13.01621901 56.73497535 -9.625 56.4375 C-5.91580635 53.23991927 -4.86466776 47.96844764 -4.41625977 43.2331543 C-4.32127 40.83976502 -4.3029346 38.45767602 -4.3125 36.0625 C-4.29638672 35.26328125 -4.28027344 34.4640625 -4.26367188 33.640625 C-4.25867425 27.4635583 -4.87182293 20.56350782 -9.1159668 15.74462891 C-13.16666929 12.23589874 -15.25763631 13.47899006 -19.2578125 16.72265625 Z " fill="#5D5D5D" transform="translate(632.625,212.5625)"/>
<path d="M0 0 C6.95642025 5.16166383 10.36017804 12.10464264 11.953125 20.44921875 C12.3364762 25.17190559 12.42747959 29.85236169 12.39916992 34.58862305 C12.39067812 36.74821059 12.41947849 38.90512638 12.45117188 41.06445312 C12.50634082 51.77856945 11.55152722 62.41747585 4.578125 71.07421875 C-0.04136873 75.69371248 -3.86370463 77.5886201 -10.421875 77.88671875 C-15.64680159 77.73032639 -19.87966673 76.68831827 -24.046875 73.44921875 C-27.27149411 69.92420737 -29.05673732 66.53027846 -30.734375 62.07421875 C-31.15074219 60.99398437 -31.56710937 59.91375 -31.99609375 58.80078125 C-34.18860991 51.80755128 -34.22942678 44.89575202 -34.234375 37.63671875 C-34.24662109 36.70279297 -34.25886719 35.76886719 -34.27148438 34.80664062 C-34.29642453 22.82705384 -32.11977608 10.96283776 -23.7421875 1.890625 C-16.95655837 -3.87872327 -7.60467004 -4.26639953 0 0 Z M-18.046875 21.44921875 C-19.74918683 26.55615423 -19.27366829 31.91547255 -19.296875 37.26171875 C-19.3175 38.43798828 -19.338125 39.61425781 -19.359375 40.82617188 C-19.48231755 49.08612193 -19.48231755 49.08612193 -16.046875 56.44921875 C-13.79735318 58.56656063 -13.79735318 58.56656063 -11.046875 59.44921875 C-8.01465751 58.79945786 -6.53441194 57.99603438 -4.47265625 55.68359375 C1.41877703 46.45099146 -0.84978004 33.36571032 -3 23.3671875 C-4.16439846 20.12164403 -5.38112762 18.60016597 -8.046875 16.44921875 C-13.00783864 15.30438099 -14.97401779 17.77886153 -18.046875 21.44921875 Z " fill="#5E5E5E" transform="translate(513.046875,210.55078125)"/>
<path d="M0 0 C4.72248648 2.38753771 7.59226812 6.64876562 9.62890625 11.38671875 C10.25607275 14.1183773 10.47807661 16.57123204 10.62890625 19.38671875 C2.81958422 24.11341367 2.81958422 24.11341367 -2.37109375 23.38671875 C-3.75233338 21.41949867 -5.08597501 19.41803547 -6.37109375 17.38671875 C-8.74992864 16.06073315 -8.74992864 16.06073315 -11.37109375 16.38671875 C-14.81535461 18.30909691 -16.12096491 19.71189199 -17.49609375 23.421875 C-18.69838818 28.0281693 -18.70135589 32.58883207 -18.68359375 37.32421875 C-18.69970703 38.17951172 -18.71582031 39.03480469 -18.73242188 39.91601562 C-18.73734935 46.37593309 -17.99096903 52.40548136 -13.55859375 57.44921875 C-10.45219766 58.78053136 -8.57151672 58.34003623 -5.37109375 57.38671875 C-3.43454427 56.36701557 -3.43454427 56.36701557 -2.37109375 54.38671875 C-1.64067522 50.77648776 -1.64067522 50.77648776 -1.37109375 47.38671875 C-4.01109375 47.38671875 -6.65109375 47.38671875 -9.37109375 47.38671875 C-9.37109375 42.43671875 -9.37109375 37.48671875 -9.37109375 32.38671875 C-2.44109375 32.38671875 4.48890625 32.38671875 11.62890625 32.38671875 C11.74397856 36.85408139 11.8434052 41.31626906 11.90356445 45.78393555 C11.92864734 47.30201676 11.96272285 48.81997793 12.00610352 50.33764648 C12.06703918 52.5248784 12.0951752 54.71050914 12.1171875 56.8984375 C12.14337158 58.21287842 12.16955566 59.52731934 12.1965332 60.8815918 C11.48859258 65.25316323 10.00473513 66.62815717 6.62890625 69.38671875 C4.4609375 70.93359375 4.4609375 70.93359375 2.44140625 72.13671875 C1.76722656 72.5440625 1.09304688 72.95140625 0.3984375 73.37109375 C-5.1216703 76.53936754 -11.15416842 76.0896203 -17.37109375 75.38671875 C-23.58169886 72.78536792 -27.64871918 67.40078576 -30.37109375 61.38671875 C-35.99716914 45.26177463 -36.32405347 26.49887827 -29.12109375 10.76171875 C-22.87404484 -0.49815968 -12.13509266 -3.13873072 0 0 Z " fill="#5E5E5E" transform="translate(684.37109375,6.61328125)"/>
<path d="M0 0 C3.96 0 7.92 0 12 0 C16.41638363 10.96816153 20.73094185 21.97370485 25 33 C25.33 33 25.66 33 26 33 C26.33 22.11 26.66 11.22 27 0 C30.63 0 34.26 0 38 0 C38 24.09 38 48.18 38 73 C34.04 72.67 30.08 72.34 26 72 C25.48050781 70.62328125 24.96101562 69.2465625 24.42578125 67.828125 C19.82506938 51.93020313 19.82506938 51.93020313 12 38 C11.67 49.22 11.34 60.44 11 72 C7.37 72 3.74 72 0 72 C0 48.24 0 24.48 0 0 Z " fill="#5D5D5D" transform="translate(578,109)"/>
<path d="M0 0 C28.92307692 0 28.92307692 0 32.6875 3.625 C37.01504502 11.45579575 37.07655333 20.71016397 34.8125 29.1875 C33.28766541 33.82798219 31.05008691 37.20800006 28 41 C28.60457031 41.85207031 29.20914063 42.70414063 29.83203125 43.58203125 C35.48316903 52.08239849 37.59260973 61.95104008 38 72 C33.71 72 29.42 72 25 72 C22.43300674 65.91527524 20.22291641 59.79747556 18.25 53.5 C18.02739502 52.79359375 17.80479004 52.0871875 17.57543945 51.359375 C16 46.25665702 16 46.25665702 16 44 C14.515 44.495 14.515 44.495 13 45 C12.67 53.91 12.34 62.82 12 72 C8.04 72 4.08 72 0 72 C0 48.24 0 24.48 0 0 Z M12 14 C12 18.95 12 23.9 12 29 C17.44124334 28.80518374 17.44124334 28.80518374 22.0625 26.375 C23.45505881 22.84718435 23.04929814 20.60696236 22 17 C18.41039896 13.90895466 16.91332533 14 12 14 Z " fill="#5E5E5E" transform="translate(829,109)"/>
<path d="M0 0 C5.28 0 10.56 0 16 0 C17.65512047 7.29142485 19.3091298 14.58310058 20.9621582 21.875 C21.52338432 24.35000233 22.0849017 26.82493864 22.64672852 29.29980469 C24.21976601 36.22955922 25.78653657 43.16066734 27.34429932 50.09387207 C27.90834634 52.59378225 28.48044028 55.09162633 29.05615234 57.58886719 C29.33023926 58.80477539 29.60432617 60.02068359 29.88671875 61.2734375 C30.10932373 62.24458496 30.33192871 63.21573242 30.5612793 64.21630859 C31.08002277 67.50774606 31.0736638 70.67349802 31 74 C26.71 74 22.42 74 18 74 C16.87695312 70.58203125 16.87695312 70.58203125 15.75390625 67.1640625 C15.04820271 64.98968201 15.04820271 64.98968201 14 63 C10.72444392 62.52998967 10.72444392 62.52998967 6.9375 62.375 C5.64714844 62.30023438 4.35679687 62.22546875 3.02734375 62.1484375 C2.02832031 62.09945312 1.02929688 62.05046875 0 62 C-0.66 65.96 -1.32 69.92 -2 74 C-6.95 74 -11.9 74 -17 74 C-14.08655405 59.78870183 -10.89938482 45.64709757 -7.6262207 31.51464844 C-6.80102739 27.95044715 -5.97944388 24.38542636 -5.15820312 20.8203125 C-4.63302295 18.54682637 -4.10764011 16.27338705 -3.58203125 14 C-3.21486748 12.40647705 -3.21486748 12.40647705 -2.84028625 10.78076172 C-2.61302353 9.80123535 -2.3857608 8.82170898 -2.15161133 7.8125 C-1.85327141 6.52279297 -1.85327141 6.52279297 -1.54890442 5.20703125 C-1 3 -1 3 0 0 Z M7 22 C6.30335725 25.81088895 5.61922037 29.62391573 4.9375 33.4375 C4.73833984 34.52611328 4.53917969 35.61472656 4.33398438 36.73632812 C4.15029297 37.77080078 3.96660156 38.80527344 3.77734375 39.87109375 C3.60452881 40.82943115 3.43171387 41.78776855 3.25366211 42.77514648 C3.16995361 43.50934814 3.08624512 44.2435498 3 45 C4.18424326 46.41577477 4.18424326 46.41577477 7.5625 46.0625 C9.2640625 46.0315625 9.2640625 46.0315625 11 46 C11.51917486 37.65474478 9.95829294 30.08961486 8 22 C7.67 22 7.34 22 7 22 Z " fill="#5D5D5D" transform="translate(447,7)"/>
<path d="M0 0 C6.94168878 6.77641047 9.31496932 14.6871846 9.53125 24.28125 C9.55145041 26.57458568 9.54651082 28.8654032 9.52148438 31.15869141 C9.50003512 33.49617227 9.52136731 35.830581 9.546875 38.16796875 C9.56751098 49.33344465 7.98071564 59.57461106 0 68 C-4.96903713 71.58232909 -10.08222205 71.79969972 -16 71 C-23.00192499 68.4326275 -25.84419045 63.58518772 -29 57 C-30.83254844 52.35505761 -31.33303843 48.12559217 -31.37109375 43.1796875 C-31.38012222 42.4397757 -31.3891507 41.69986389 -31.39845276 40.93753052 C-31.41290057 39.37603765 -31.42182833 37.81448499 -31.42553711 36.25292969 C-31.43736461 33.90191242 -31.48653799 31.55358417 -31.53710938 29.203125 C-31.6522019 18.5106974 -30.57628582 8.54509242 -22.9375 0.3125 C-16.53048329 -4.73132167 -6.65457222 -4.64272481 0 0 Z M-15.1875 15.875 C-20.26099392 21.82323425 -19.29102904 31.85879365 -19.2265625 39.34765625 C-18.79610133 44.38702067 -17.63052408 49.36947592 -14 53 C-11.0850745 53.5838196 -11.0850745 53.5838196 -8 53 C-3.81175342 49.15134098 -3.20865626 45.45656106 -2.87573242 39.94140625 C-2.79420226 37.6474554 -2.76523854 35.35780545 -2.75 33.0625 C-2.729375 32.28970703 -2.70875 31.51691406 -2.6875 30.72070312 C-2.6464187 24.64580644 -3.73976611 20.0464022 -7.4375 15.0625 C-10.49303233 12.98473802 -12.5595146 13.62244108 -15.1875 15.875 Z " fill="#5E5E5E" transform="translate(809,111)"/>
<path d="M0 0 C3.63 0 7.26 0 11 0 C11.68335178 8.35885658 12.11334242 16.6126612 12 25 C16.29 25 20.58 25 25 25 C24.98839844 23.53046875 24.97679687 22.0609375 24.96484375 20.546875 C24.9554637 18.6145846 24.94636373 16.68229283 24.9375 14.75 C24.92912109 13.78191406 24.92074219 12.81382813 24.91210938 11.81640625 C24.90727539 10.41455078 24.90727539 10.41455078 24.90234375 8.984375 C24.89448853 7.69611816 24.89448853 7.69611816 24.88647461 6.38183594 C25 4 25 4 26 0 C29.96 0 33.92 0 38 0 C38 23.76 38 47.52 38 72 C34.04 72 30.08 72 26 72 C25.22165737 68.10828687 24.88155073 65.15001261 24.90234375 61.26171875 C24.90556641 60.19501953 24.90878906 59.12832031 24.91210938 58.02929688 C24.92048828 56.92650391 24.92886719 55.82371094 24.9375 54.6875 C24.94201172 53.56537109 24.94652344 52.44324219 24.95117188 51.28710938 C24.96292674 48.52471664 24.98086131 45.76235144 25 43 C20.71 43 16.42 43 12 43 C12.020625 44.629375 12.04125 46.25875 12.0625 47.9375 C12.07213105 55.97942915 11.53216479 63.97951637 11 72 C7.37 72 3.74 72 0 72 C0 48.24 0 24.48 0 0 Z " fill="#5D5D5D" transform="translate(483,109)"/>
<path d="M0 0 C5.02073405 4.56666249 6.12718758 10.52555564 7 17 C3.70239974 19.68204821 1.24653099 20.89854445 -2.9609375 21.34765625 C-6.4533603 20.75220485 -7.95385893 18.30472895 -9.96875 15.56640625 C-10.47921875 14.79103516 -10.47921875 14.79103516 -11 14 C-13.45631001 14.49547543 -13.45631001 14.49547543 -16 16 C-21.22919551 25.89812008 -21.58842823 38.4808791 -18.68359375 49.21875 C-17.60007075 52.04210136 -16.61039155 53.4478753 -14 55 C-10.47610516 54.93817728 -8.04891604 54.67672002 -5.0625 52.75 C-3.64559947 50.41628148 -3.78281304 48.67863922 -4 46 C-7.465 45.505 -7.465 45.505 -11 45 C-11 40.05 -11 35.1 -11 30 C-5.06 30 0.88 30 7 30 C7.11507231 34.46736264 7.21449895 38.92955031 7.2746582 43.3972168 C7.29974109 44.91529801 7.3338166 46.43325918 7.37719727 47.95092773 C7.43813293 50.13815965 7.46626895 52.32379039 7.48828125 54.51171875 C7.51446533 55.82615967 7.54064941 57.14060059 7.56762695 58.49487305 C6.86053045 62.86123195 5.35664915 64.23092308 2 67 C1.40058594 67.52207031 0.80117188 68.04414063 0.18359375 68.58203125 C-4.74963461 72.05846734 -9.09220579 72.82683944 -15.09765625 72.5390625 C-20.81224844 71.47767122 -24.19049667 68.51294196 -27.52734375 63.87890625 C-33.04597363 54.64919772 -33.3403167 45.70777771 -33.3125 35.1875 C-33.32861328 33.98029297 -33.34472656 32.77308594 -33.36132812 31.52929688 C-33.36753279 20.05687382 -31.71029353 9.87447151 -24 1 C-17.86476892 -3.93811282 -6.84445385 -3.52843397 0 0 Z " fill="#5D5D5D" transform="translate(659,110)"/>
<path d="M0 0 C11.22 0 22.44 0 34 0 C34 4.95 34 9.9 34 15 C27.07 15 20.14 15 13 15 C13 18.63 13 22.26 13 26 C19.27 26 25.54 26 32 26 C32 30.95 32 35.9 32 41 C25.73 41 19.46 41 13 41 C13 45.95 13 50.9 13 56 C19.93 56 26.86 56 34 56 C34 61.28 34 66.56 34 72 C22.78 72 11.56 72 0 72 C0 48.24 0 24.48 0 0 Z " fill="#5E5E5E" transform="translate(676,109)"/>
<path d="M0 0 C4.95 0 9.9 0 15 0 C16.83188826 8.50032345 18.65855107 17.00172421 20.47612 25.50512123 C21.3203571 29.45382636 22.16684629 33.40202014 23.01855469 37.34912109 C23.84089316 41.16051911 24.65722091 44.97315982 25.4694519 48.78672409 C25.77989362 50.23917566 26.09247381 51.69117192 26.40725708 53.14268875 C26.84884321 55.1807014 27.28269783 57.22022174 27.71484375 59.26025391 C27.96355225 60.41941315 28.21226074 61.57857239 28.46850586 62.77285767 C28.98598664 65.91491327 29.0989702 68.82253752 29 72 C27.04233719 72.08082094 25.08373272 72.13910778 23.125 72.1875 C21.48917969 72.23970703 21.48917969 72.23970703 19.8203125 72.29296875 C18.88960937 72.19628906 17.95890625 72.09960938 17 72 C14.2884971 67.93274566 14.42132512 64.8452389 14 60 C9.38 60 4.76 60 0 60 C-0.144375 61.794375 -0.28875 63.58875 -0.4375 65.4375 C-0.875 70.875 -0.875 70.875 -2 72 C-4.01964199 72.07244053 -6.04167124 72.08377188 -8.0625 72.0625 C-9.16722656 72.05347656 -10.27195312 72.04445313 -11.41015625 72.03515625 C-12.26480469 72.02355469 -13.11945312 72.01195312 -14 72 C-14.334295 65.54907128 -13.06955489 59.68422593 -11.69921875 53.3984375 C-11.46217728 52.28497955 -11.2251358 51.17152161 -10.98091125 50.02432251 C-10.22308306 46.47308899 -9.45531933 42.92408515 -8.6875 39.375 C-8.18231455 37.01185295 -7.67775107 34.64857284 -7.17382812 32.28515625 C-4.86744779 21.5023398 -2.49754217 10.74039317 0 0 Z M7 23 C4.37973476 32.88746162 4.37973476 32.88746162 3 43 C4.18424326 44.41577477 4.18424326 44.41577477 7.5625 44.0625 C9.2640625 44.0315625 9.2640625 44.0315625 11 44 C10.41523944 36.90593106 9.36766005 29.98436101 8 23 C7.67 23 7.34 23 7 23 Z " fill="#5E5E5E" transform="translate(542,109)"/>
<path d="M0 0 C14.52 0 29.04 0 44 0 C44 6.6 44 13.2 44 20 C39.38 20 34.76 20 30 20 C30 39.14 30 58.28 30 78 C25.05 78 20.1 78 15 78 C15 58.86 15 39.72 15 20 C10.05 20 5.1 20 0 20 C0 13.4 0 6.8 0 0 Z " fill="#5E5E5E" transform="translate(431,209)"/>
<path d="M0 0 C5.38309424 2.33786944 7.37212821 7.49902572 9.8125 12.5390625 C10.86388408 15.46984377 11.19201708 17.4345951 10.87890625 20.51171875 C8.60162517 24.12857693 4.82740544 24.54321895 0.87890625 25.51171875 C0.59917969 24.93421875 0.31945312 24.35671875 0.03125 23.76171875 C-1.21229426 21.45856282 -2.38299563 19.47353247 -4.12109375 17.51171875 C-7.83365828 16.84248113 -7.83365828 16.84248113 -11.12109375 17.51171875 C-15.5530673 27.55752547 -15.9714601 42.17652486 -12.12109375 52.51171875 C-10.99203578 54.6477818 -10.99203578 54.6477818 -9.12109375 55.51171875 C-6.61969997 55.53520867 -6.61969997 55.53520867 -4.12109375 54.51171875 C-2.42980641 52.00125879 -2.42980641 52.00125879 -1.30859375 48.94921875 C-0.88964844 47.93730469 -0.47070312 46.92539063 -0.0390625 45.8828125 C0.26386719 45.10035156 0.56679688 44.31789062 0.87890625 43.51171875 C5.3876164 44.24140779 8.16364984 45.83327808 11.87890625 48.51171875 C11.59073287 56.00422657 8.93823341 62.22515014 4.87890625 68.51171875 C-0.33298282 73.15503811 -3.49519298 73.8798779 -10.36328125 73.78125 C-15.01394527 73.32672335 -17.39990551 71.43539972 -20.44921875 68.02734375 C-29.56330075 55.61901524 -29.67108979 37.07391459 -27.61328125 22.4765625 C-25.99745956 13.79384248 -23.21951741 8.13914157 -17.55859375 1.51171875 C-11.95131954 -1.75069534 -6.23441995 -1.43517955 0 0 Z " fill="#5D5D5D" transform="translate(462.12109375,108.48828125)"/>
<path d="M0 0 C10.56 0 21.12 0 32 0 C32 4.95 32 9.9 32 15 C25.73 15 19.46 15 13 15 C13 19.29 13 23.58 13 28 C18.28 28 23.56 28 29 28 C29 32.62 29 37.24 29 42 C23.72 42 18.44 42 13 42 C13 51.9 13 61.8 13 72 C8.71 72 4.42 72 0 72 C0 48.24 0 24.48 0 0 Z " fill="#5D5D5D" transform="translate(738,109)"/>
<path d="M0 0 C4.62 0 9.24 0 14 0 C14 24.42 14 48.84 14 74 C9.38 74 4.76 74 0 74 C0 49.58 0 25.16 0 0 Z " fill="#5E5E5E" transform="translate(573,7)"/>
<path d="M0 0 C4.62 0 9.24 0 14 0 C14 24.42 14 48.84 14 74 C9.38 74 4.76 74 0 74 C0 49.58 0 25.16 0 0 Z " fill="#5E5E5E" transform="translate(486,7)"/>
<path d="M0 0 C0.99 0.33 1.98 0.66 3 1 C-2.0091345 5.86336604 -7.26831976 10.03720345 -13.125 13.8125 C-13.98472412 14.37118774 -13.98472412 14.37118774 -14.86181641 14.94116211 C-25.32543996 21.54559556 -36.4342593 24.00438208 -48.703125 21.43359375 C-53.00098348 20.03752067 -57.02044429 18.14283769 -61 16 C-57.98968256 15.06576355 -57.13349732 14.95550089 -54 16 C-54 16.66 -54 17.32 -54 18 C-52.35 18 -50.7 18 -49 18 C-49 18.66 -49 19.32 -49 20 C-45.60321197 19.91879294 -42.20817618 19.80597981 -38.8125 19.6875 C-37.85279297 19.66494141 -36.89308594 19.64238281 -35.90429688 19.61914062 C-30.77065311 19.42374242 -27.23029984 19.2042629 -23 16 C-22.2575 15.835 -21.515 15.67 -20.75 15.5 C-20.1725 15.335 -19.595 15.17 -19 15 C-18.67 14.01 -18.34 13.02 -18 12 C-16.2578125 10.83203125 -16.2578125 10.83203125 -14.125 9.8125 C-13.42632812 9.46832031 -12.72765625 9.12414062 -12.0078125 8.76953125 C-10 8 -10 8 -7 8 C-6.95875 7.38125 -6.9175 6.7625 -6.875 6.125 C-6.441875 5.073125 -6.441875 5.073125 -6 4 C-2.9375 2.75 -2.9375 2.75 0 2 C0 1.34 0 0.68 0 0 Z " fill="#B13841" transform="translate(99,189)"/>
<path d="M0 0 C1.258125 0.33 2.51625 0.66 3.8125 1 C12.08044639 2.699057 20.6043379 2.15515597 29 2 C29 3.98 29 5.96 29 8 C27.68 8 26.36 8 25 8 C25 8.66 25 9.32 25 10 C21 8 21 8 19.234375 6.9609375 C16.43288229 5.75609973 14.03963284 5.65198164 11 5.5 C4.14868805 5.1574344 4.14868805 5.1574344 1 3 C0.67 2.01 0.34 1.02 0 0 Z " fill="#278FCC" transform="translate(43,209)"/>
<path d="M0 0 C0.99 0.495 0.99 0.495 2 1 C2 1.99 2 2.98 2 4 C2.66 4 3.32 4 4 4 C4 5.32 4 6.64 4 8 C5.32 8 6.64 8 8 8 C8 10.31 8 12.62 8 15 C10.33214148 16.20628008 12.49642139 17.1654738 15 18 C15.99 17.34 16.98 16.68 18 16 C18.042721 17.66611905 18.04063832 19.33382885 18 21 C17 22 17 22 14.6953125 22.29296875 C9.74930954 21.75535973 7.11449193 17.59416422 4 14 C0.5679292 9.68223351 0.33776936 5.34607366 0 0 Z " fill="#2A8DCA" transform="translate(0,236)"/>
<path d="M0 0 C1.98 0.66 3.96 1.32 6 2 C6.13277344 2.81984375 6.26554688 3.6396875 6.40234375 4.484375 C6.57894531 5.56203125 6.75554687 6.6396875 6.9375 7.75 C7.11152344 8.81734375 7.28554687 9.8846875 7.46484375 10.984375 C7.88704171 13.36347593 8.37202884 15.66915211 9 18 C9.99 18 10.98 18 12 18 C12.33 19.98 12.66 21.96 13 24 C13.66 24 14.32 24 15 24 C15.33 25.32 15.66 26.64 16 28 C10.69935639 24.55839506 8.52259894 20.03713772 5.75 14.5625 C5.30398437 13.71623047 4.85796875 12.86996094 4.3984375 11.99804688 C2.31495657 7.96682695 0.74818858 4.50848119 0 0 Z " fill="#CE2928" transform="translate(144,155)"/>
<path d="M0 0 C0.66 0.66 1.32 1.32 2 2 C1.360625 2.598125 0.72125 3.19625 0.0625 3.8125 C-3.21545392 7.2891178 -3.12784715 10.21882971 -3.1328125 14.8046875 C-3.13410156 15.94550781 -3.13539063 17.08632812 -3.13671875 18.26171875 C-3.13285156 19.45410156 -3.12898438 20.64648438 -3.125 21.875 C-3.12886719 23.05964844 -3.13273437 24.24429688 -3.13671875 25.46484375 C-3.13542969 26.60824219 -3.13414062 27.75164062 -3.1328125 28.9296875 C-3.13168457 29.97366699 -3.13055664 31.01764648 -3.12939453 32.09326172 C-3.00727186 34.83664393 -2.6192268 37.32939228 -2 40 C-4.17516698 38.2976954 -4.94786693 37.18957481 -5.6875 34.5 C-6.04677217 30.47615167 -6.02682902 26.52483644 -5.9375 22.48828125 C-5.88204874 19.8666758 -5.88204874 19.8666758 -7 17 C-6.02982501 10.63492673 -4.76588468 4.60154383 0 0 Z " fill="#515151" transform="translate(498,226)"/>
<path d="M0 0 C0.66 0 1.32 0 2 0 C3.01051767 4.37263897 4.00655097 8.74845428 5 13.125 C5.28617188 14.3625 5.57234375 15.6 5.8671875 16.875 C6.13789062 18.07382813 6.40859375 19.27265625 6.6875 20.5078125 C7.06455078 22.15740967 7.06455078 22.15740967 7.44921875 23.84033203 C8 27 8 27 8 33 C4.04 33 0.08 33 -4 33 C-4 32.67 -4 32.34 -4 32 C-0.37 32 3.26 32 7 32 C6.60167969 30.53240234 6.60167969 30.53240234 6.1953125 29.03515625 C3.59360953 19.40208961 1.08452802 9.94150687 0 0 Z " fill="#535353" transform="translate(563,148)"/>
<path d="M0 0 C1.58203125 1.1015625 1.58203125 1.1015625 3.89453125 3.1015625 C4.55453125 3.1015625 5.21453125 3.1015625 5.89453125 3.1015625 C5.89453125 4.0915625 5.89453125 5.0815625 5.89453125 6.1015625 C6.55453125 6.1015625 7.21453125 6.1015625 7.89453125 6.1015625 C7.56453125 8.4115625 7.23453125 10.7215625 6.89453125 13.1015625 C4.89453125 10.1015625 4.89453125 10.1015625 3.70703125 7.6640625 C1.33775231 4.31439227 -1.28993601 2.46425277 -5.10546875 1.1015625 C-10.77566296 0.29010361 -15.74202431 1.27570907 -21.10546875 3.1015625 C-21.10546875 2.4415625 -21.10546875 1.7815625 -21.10546875 1.1015625 C-14.66896963 -1.32181819 -6.561023 -2.79969441 0 0 Z " fill="#BD2D30" transform="translate(62.10546875,145.8984375)"/>
<path d="M0 0 C0.33 0 0.66 0 1 0 C1.05855176 3.52076232 1.0937806 7.0413976 1.125 10.5625 C1.14175781 11.55314453 1.15851562 12.54378906 1.17578125 13.56445312 C1.21274359 19.12728491 0.87082551 23.74843075 -1 29 C-1.639375 29.12375 -2.27875 29.2475 -2.9375 29.375 C-3.618125 29.58125 -4.29875 29.7875 -5 30 C-5.33 30.66 -5.66 31.32 -6 32 C-8.31 31.34 -10.62 30.68 -13 30 C-13 29.01 -13 28.02 -13 27 C-12.34 27.33 -11.68 27.66 -11 28 C-8.04211431 28.4167552 -8.04211431 28.4167552 -5 28 C-0.8292 24.26066207 -1.00853776 18.75128597 -0.68359375 13.4765625 C-0.59814198 11.85955213 -0.51617513 10.24235425 -0.4375 8.625 C-0.39431641 7.79355469 -0.35113281 6.96210938 -0.30664062 6.10546875 C-0.20138195 4.07046772 -0.10026928 2.03525297 0 0 Z " fill="#535353" transform="translate(806,135)"/>
<path d="M0 0 C0 0.99 0 1.98 0 3 C0.66 3.33 1.32 3.66 2 4 C0.02253397 4.73080266 -1.98072489 5.39421747 -4 6 C-4.66 5.67 -5.32 5.34 -6 5 C-6.69437747 6.99054876 -7.35610218 8.99255385 -8 11 C-8.309375 11.825 -8.61875 12.65 -8.9375 13.5 C-9.01243492 16.49739671 -8.42744375 17.06297745 -6.5625 19.3125 C-5.716875 20.199375 -4.87125 21.08625 -4 22 C-6.87231652 20.71240983 -9.19225634 19.62122831 -11 17 C-11.55434154 12.80284259 -11.30297363 10.57228353 -9.3125 6.8125 C-3.71111111 0 -3.71111111 0 0 0 Z " fill="#C8272D" transform="translate(36,49)"/>
<path d="M0 0 C3.16115776 1.36983503 3.9927092 1.9890638 6 5 C5.9375 7.5625 5.9375 7.5625 5 10 C0.24548206 12.92063245 -4.98478556 12.00151692 -10.3125 11.625 C-11.24384766 11.56828125 -12.17519531 11.5115625 -13.13476562 11.453125 C-15.42402103 11.31224774 -17.7120794 11.16090171 -20 11 C-20 10.67 -20 10.34 -20 10 C-12.41 9.67 -4.82 9.34 3 9 C2.67 7.02 2.34 5.04 2 3 C1.34 2.67 0.68 2.34 0 2 C0 1.34 0 0.68 0 0 Z " fill="#338CB7" transform="translate(166,217)"/>
<path d="M0 0 C1.79244141 0.01740234 1.79244141 0.01740234 3.62109375 0.03515625 C5.41740234 0.04869141 5.41740234 0.04869141 7.25 0.0625 C8.17683594 0.07410156 9.10367188 0.08570313 10.05859375 0.09765625 C10.18359375 3.47265625 10.18359375 3.47265625 10.05859375 7.09765625 C9.39859375 7.75765625 8.73859375 8.41765625 8.05859375 9.09765625 C8.05859375 8.10765625 8.05859375 7.11765625 8.05859375 6.09765625 C7.39859375 5.76765625 6.73859375 5.43765625 6.05859375 5.09765625 C6.05859375 3.77765625 6.05859375 2.45765625 6.05859375 1.09765625 C1.41272483 1.58249901 1.41272483 1.58249901 -2.94140625 3.09765625 C-2.94140625 6.06765625 -2.94140625 9.03765625 -2.94140625 12.09765625 C-3.60140625 12.09765625 -4.26140625 12.09765625 -4.94140625 12.09765625 C-4.80103104 10.28472536 -4.65395736 8.47231195 -4.50390625 6.66015625 C-4.42269531 5.65082031 -4.34148438 4.64148438 -4.2578125 3.6015625 C-3.80299014 0.00228923 -3.69689974 0.12273904 0 0 Z " fill="#545456" transform="translate(855.94140625,208.90234375)"/>
<path d="M0 0 C0.845625 -0.01224609 1.69125 -0.02449219 2.5625 -0.03710938 C3.37976563 -0.03904297 4.19703125 -0.04097656 5.0390625 -0.04296875 C5.77592285 -0.04707764 6.5127832 -0.05118652 7.27197266 -0.05541992 C9.66690606 0.22121796 11.29327756 1.00084178 13.375 2.1875 C12.19164062 2.17589844 11.00828125 2.16429688 9.7890625 2.15234375 C-2.50229507 1.71971466 -2.50229507 1.71971466 -14.625 3.1875 C-15.285 3.8475 -15.945 4.5075 -16.625 5.1875 C-18.94775177 5.58797444 -21.28239357 5.9272104 -23.625 6.1875 C-17.76814525 -0.59412129 -8.24626264 0.00634328 0 0 Z " fill="#C12D2D" transform="translate(35.625,110.8125)"/>
<path d="M0 0 C1.32 0.33 2.64 0.66 4 1 C4 0.67 4 0.34 4 0 C5.65 0 7.3 0 9 0 C8.67 1.32 8.34 2.64 8 4 C8.99 4.33 9.98 4.66 11 5 C11 5.66 11 6.32 11 7 C12.98 6.67 14.96 6.34 17 6 C16.67 6.66 16.34 7.32 16 8 C16.99 8.99 17.98 9.98 19 11 C11.64688197 9.13507876 5.87830882 5.78609695 0 1 C0 0.67 0 0.34 0 0 Z " fill="#C32D2C" transform="translate(274,194)"/>
<path d="M0 0 C0.33 0 0.66 0 1 0 C2.87477021 10.09956852 2.65725813 19.35615861 -1 29 C-2.0625 27.125 -2.0625 27.125 -3 25 C-2.67 24.34 -2.34 23.68 -2 23 C-1.34 23 -0.68 23 0 23 C0 15.41 0 7.82 0 0 Z " fill="#BB2E2D" transform="translate(239,169)"/>
<path d="M0 0 C1.258125 0.33 2.51625 0.66 3.8125 1 C12.08044639 2.699057 20.6043379 2.15515597 29 2 C26.39911378 4.60088622 25.17862887 4.29962225 21.5546875 4.4140625 C20.47832031 4.45273438 19.40195312 4.49140625 18.29296875 4.53125 C16.60107422 4.57765625 16.60107422 4.57765625 14.875 4.625 C13.73933594 4.66367188 12.60367188 4.70234375 11.43359375 4.7421875 C8.62256044 4.83667601 5.81153767 4.92223541 3 5 C2.01 3.35 1.02 1.7 0 0 Z " fill="#417CB0" transform="translate(43,209)"/>
<path d="M0 0 C2 1 2 1 3 3.6875 C3.33 4.780625 3.66 5.87375 4 7 C4.37125 8.0725 4.7425 9.145 5.125 10.25 C6 13 6 13 6 15 C9.96 15.33 13.92 15.66 18 16 C18 16.33 18 16.66 18 17 C13.71 17 9.42 17 5 17 C2.55411563 11.24033681 0.54223314 6.23568111 0 0 Z M4 6 C6 7 6 7 6 7 Z " fill="#535353" transform="translate(849,164)"/>
<path d="M0 0 C-4.58228917 4.15269956 -9.73448807 7 -16 7 C-16 6.01 -16 5.02 -16 4 C-14.02 3.01 -12.04 2.02 -10 1 C-10 1.66 -10 2.32 -10 3 C-8.68 3 -7.36 3 -6 3 C-6 2.01 -6 1.02 -6 0 C-3.50907189 -1.24546405 -2.58919267 -0.7767578 0 0 Z " fill="#D22928" transform="translate(320,100)"/>
<path d="M0 0 C0.33 0 0.66 0 1 0 C1.33611568 2.10372401 1.66879946 4.20799657 2 6.3125 C2.185625 7.48425781 2.37125 8.65601563 2.5625 9.86328125 C3 13 3 13 3 16 C3.66 16.33 4.32 16.66 5 17 C6 19 6 19 5.0625 22.125 C4.711875 23.07375 4.36125 24.0225 4 25 C1.17253334 22.17253334 1.29392489 19.12059597 0.875 15.3125 C0.78863281 14.61705078 0.70226562 13.92160156 0.61328125 13.20507812 C0.09197882 8.77400744 -0.08184334 4.46046181 0 0 Z " fill="#515151" transform="translate(809,257)"/>
<path d="M0 0 C0.66 0 1.32 0 2 0 C4.03895283 8.66875541 5.52735047 17.10115016 6 26 C5.01 25.67 4.02 25.34 3 25 C3.0309375 23.865625 3.061875 22.73125 3.09375 21.5625 C3.09375 16.92073511 2.37471577 12.54694591 1.5 8 C1.35691406 7.22527344 1.21382812 6.45054687 1.06640625 5.65234375 C0.71727671 3.76704421 0.35954684 1.88334061 0 0 Z " fill="#555556" transform="translate(839,209)"/>
<path d="M0 0 C2.02045442 0.60183749 4.02111039 1.27306096 6 2 C6.33 2.66 6.66 3.32 7 4 C9.16874252 3.49396008 10.99967627 3.00016187 13 2 C13.042721 3.66611905 13.04063832 5.33382885 13 7 C12 8 12 8 9.875 8.5 C5.35234654 7.71345157 2.86481383 4.44273016 0 1 C0 0.67 0 0.34 0 0 Z " fill="#2E8BBC" transform="translate(5,250)"/>
<path d="M0 0 C2.00720923 0.28674418 4.0085944 0.61866701 6 1 C5.60167969 1.43570313 5.20335937 1.87140625 4.79296875 2.3203125 C1.51063169 6.00994686 -0.99399746 9.43077198 -3 14 C-3.97608217 11.07175348 -4.08226668 9.04386724 -4 6 C-3.01 6 -2.02 6 -1 6 C-1.020625 5.195625 -1.04125 4.39125 -1.0625 3.5625 C-1 1 -1 1 0 0 Z " fill="#2785C0" transform="translate(23,230)"/>
<path d="M0 0 C0.99 0.495 0.99 0.495 2 1 C1.98839844 2.16917969 1.97679687 3.33835938 1.96484375 4.54296875 C1.95546087 6.09114423 1.9463612 7.63932145 1.9375 9.1875 C1.92912109 9.95642578 1.92074219 10.72535156 1.91210938 11.51757812 C1.89505633 15.49093664 2.03001809 19.12007237 3 23 C3.5 25.5 3.5 25.5 4 28 C3.34 28.33 2.68 28.66 2 29 C0.06368829 22.53546326 -0.24556441 16.72378423 -0.125 10 C-0.11597656 9.03449219 -0.10695313 8.06898438 -0.09765625 7.07421875 C-0.07430635 4.71587901 -0.04156047 2.35807714 0 0 Z " fill="#545454" transform="translate(626,138)"/>
<path d="M0 0 C3.36338044 3.36338044 4 6.28835716 4 11 C-1.28 11 -6.56 11 -12 11 C-12.33 9.68 -12.66 8.36 -13 7 C-12.01 7.495 -12.01 7.495 -11 8 C-11 8.66 -11 9.32 -11 10 C-4.565 9.505 -4.565 9.505 2 9 C1.34 7.68 0.68 6.36 0 5 C-0.125 2.25 -0.125 2.25 0 0 Z " fill="#535353" transform="translate(744,276)"/>
<path d="M0 0 C0 0.66 0 1.32 0 2 C-2.31 2 -4.62 2 -7 2 C-7 2.66 -7 3.32 -7 4 C-7.639375 4.12375 -8.27875 4.2475 -8.9375 4.375 C-9.9584375 4.684375 -9.9584375 4.684375 -11 5 C-11.33 5.66 -11.66 6.32 -12 7 C-12.33 6.01 -12.66 5.02 -13 4 C-13.99 3.67 -14.98 3.34 -16 3 C-14.08487728 2.49411853 -12.16783078 1.99551609 -10.25 1.5 C-8.64898437 1.08234375 -8.64898437 1.08234375 -7.015625 0.65625 C-4 0 -4 0 0 0 Z " fill="#CC292C" transform="translate(222,79)"/>
<path d="M0 0 C0.66 0 1.32 0 2 0 C2.66 2.31 3.32 4.62 4 7 C4.99 7 5.98 7 7 7 C7.33 8.98 7.66 10.96 8 13 C8.66 13 9.32 13 10 13 C10.33 14.32 10.66 15.64 11 17 C5.328053 13.49673862 2.71826788 7.88490985 0 2 C0 1.34 0 0.68 0 0 Z " fill="#BD292E" transform="translate(149,166)"/>
<path d="M0 0 C4.13639336 1.59092052 7.23213248 4.60474918 10 8 C10 8.66 10 9.32 10 10 C8.35 10.33 6.7 10.66 5 11 C4.731875 9.88625 4.46375 8.7725 4.1875 7.625 C3.34190981 3.78159049 3.34190981 3.78159049 0 2 C0 1.34 0 0.68 0 0 Z " fill="#CA292A" transform="translate(296,124)"/>
<path d="M0 0 C0.66 0.99 1.32 1.98 2 3 C4.05003955 4.19232613 4.05003955 4.19232613 6 5 C0.72684667 4.5547115 -4.01770224 3.91626837 -9 2 C-9 1.67 -9 1.34 -9 1 C-5.846632 0.29925156 -3.27275026 0 0 0 Z " fill="#C22C2C" transform="translate(302,204)"/>
<path d="M0 0 C2.19858192 3.29787288 3.08315174 6.13806357 4.1875 9.9375 C4.55230469 11.16339844 4.91710937 12.38929687 5.29296875 13.65234375 C5.93853762 16.70898753 6.1197357 18.15430227 5 21 C4.49528803 19.23050388 3.99639315 17.45934777 3.5 15.6875 C3.2215625 14.70136719 2.943125 13.71523437 2.65625 12.69921875 C2 10 2 10 2 7 C1.01 7 0.02 7 -1 7 C-0.67 4.69 -0.34 2.38 0 0 Z " fill="#BC2927" transform="translate(121,74)"/>
<path d="M0 0 C0.66 0 1.32 0 2 0 C2.50690584 2.06081361 3.00524619 4.12373526 3.5 6.1875 C3.7784375 7.33605469 4.056875 8.48460937 4.34375 9.66796875 C4.91495385 12.56818829 5.13283779 15.06096385 5 18 C1.7811108 14.50772569 1.37121158 11.39160389 0.8125 6.75 C0.65394531 5.48671875 0.49539063 4.2234375 0.33203125 2.921875 C0.22246094 1.95765625 0.11289062 0.9934375 0 0 Z " fill="#555555" transform="translate(464,20)"/>
<path d="M0 0 C1 3 1 3 -0.1875 5.9375 C-1.88803762 8.81082218 -3.57826515 10.73971414 -6 13 C-6.33 13.66 -6.66 14.32 -7 15 C-7.66 14.01 -8.32 13.02 -9 12 C-8.071875 11.319375 -7.14375 10.63875 -6.1875 9.9375 C-2.68613361 7.05694325 -1.49368977 4.23212101 0 0 Z " fill="#535353" transform="translate(742,240)"/>
<path d="M0 0 C2 2 2 2 2.265625 4.49609375 C2.26046875 5.46675781 2.2553125 6.43742188 2.25 7.4375 C2.25515625 8.40558594 2.2603125 9.37367188 2.265625 10.37109375 C2 13 2 13 0 16 C-1.23004981 13.53990037 -1.13314027 11.86827194 -1.125 9.125 C-1.12757813 8.26132813 -1.13015625 7.39765625 -1.1328125 6.5078125 C-1.01023921 4.19334029 -0.64966445 2.21710884 0 0 Z " fill="#545454" transform="translate(596,240)"/>
<path d="M0 0 C3 1 3 1 4.38671875 3.14453125 C4.81597656 4.02496094 5.24523437 4.90539062 5.6875 5.8125 C6.12449219 6.68519531 6.56148437 7.55789062 7.01171875 8.45703125 C8 11 8 11 8 15 C7.34 15 6.68 15 6 15 C5.81824219 14.33613281 5.63648438 13.67226562 5.44921875 12.98828125 C4.10476709 8.26546387 2.85015263 4.07164661 0 0 Z " fill="#565658" transform="translate(632,214)"/>
<path d="M0 0 C1.8125 0.75 1.8125 0.75 2.8125 2.75 C4.82919827 3.88350534 4.82919827 3.88350534 6.8125 4.75 C3.10468328 5.98593891 2.13739747 5.3178132 -1.375 3.8125 C-2.27605469 3.43222656 -3.17710937 3.05195313 -4.10546875 2.66015625 C-4.79253906 2.35980469 -5.47960937 2.05945313 -6.1875 1.75 C-2.4609375 -0.28125 -2.4609375 -0.28125 0 0 Z " fill="#C02B2A" transform="translate(194.1875,203.25)"/>
<path d="M0 0 C2.48862878 3.23521742 4.75421558 6.59260295 7 10 C3.625 9.3125 3.625 9.3125 0 8 C-1.5625 5.5625 -1.5625 5.5625 -2 3 C-1.34 2.01 -0.68 1.02 0 0 Z " fill="#C92629" transform="translate(37,159)"/>
<path d="M0 0 C5.71937959 1.85493392 11.35555275 3.93103891 17 6 C17 6.33 17 6.66 17 7 C10.58008874 6.42934122 4.98410537 4.32655091 -1 2 C-0.67 1.34 -0.34 0.68 0 0 Z " fill="#BC2E33" transform="translate(187,146)"/>
<path d="M0 0 C0.59554687 0.21785156 1.19109375 0.43570313 1.8046875 0.66015625 C0.4434375 1.43359375 0.4434375 1.43359375 -0.9453125 2.22265625 C-4.71293866 4.69571892 -6.2037273 7.67698586 -8.1953125 11.66015625 C-8.8553125 11.66015625 -9.5153125 11.66015625 -10.1953125 11.66015625 C-9.05512058 6.87135021 -7.14302999 4.12648944 -3.828125 0.6640625 C-2.1953125 -0.33984375 -2.1953125 -0.33984375 0 0 Z " fill="#535353" transform="translate(791.1953125,109.33984375)"/>
<path d="M0 0 C0.66 0 1.32 0 2 0 C2.33 1.65 2.66 3.3 3 5 C2.01 4.67 1.02 4.34 0 4 C0.99 5.485 0.99 5.485 2 7 C1.67 7.99 1.34 8.98 1 10 C-1.28773145 8.18887927 -1.95209822 7.39279457 -2.3125 4.4375 C-2 2 -2 2 0 0 Z " fill="#C9292A" transform="translate(204,83)"/>
<path d="M0 0 C0.33 0 0.66 0 1 0 C0.88590407 1.45922693 0.75834456 2.91740598 0.625 4.375 C0.55539063 5.18710938 0.48578125 5.99921875 0.4140625 6.8359375 C0 9 0 9 -2 11 C-2.6425235 13.06874034 -2.6425235 13.06874034 -3 15 C-3.66 15 -4.32 15 -5 15 C-3.78623966 9.67812773 -2.27376292 4.96093728 0 0 Z " fill="#C42D2E" transform="translate(148,68)"/>
<path d="M0 0 C0.66 0 1.32 0 2 0 C2.05389087 1.95803507 2.09274217 3.91648909 2.125 5.875 C2.14820313 6.96554688 2.17140625 8.05609375 2.1953125 9.1796875 C2 12 2 12 0 14 C-0.19532961 12.2300132 -0.38098882 10.45895721 -0.5625 8.6875 C-0.66691406 7.70136719 -0.77132812 6.71523437 -0.87890625 5.69921875 C-1 3 -1 3 0 0 Z " fill="#545454" transform="translate(545,246)"/>
<path d="M0 0 C2.64 0 5.28 0 8 0 C7.38125 0.268125 6.7625 0.53625 6.125 0.8125 C3.7004767 1.95556848 3.7004767 1.95556848 2 5 C2.66 5.33 3.32 5.66 4 6 C3.67 7.98 3.34 9.96 3 12 C0.97649676 8.96474514 0.67875982 7.80573798 0.375 4.3125 C0.30023437 3.50425781 0.22546875 2.69601563 0.1484375 1.86328125 C0.09945312 1.24839844 0.05046875 0.63351563 0 0 Z " fill="#545456" transform="translate(802,209)"/>
<path d="M0 0 C2.31 0.33 4.62 0.66 7 1 C7 1.66 7 2.32 7 3 C8.65 3 10.3 3 12 3 C12 3.66 12 4.32 12 5 C12.66 5.33 13.32 5.66 14 6 C8.29290936 5.53411505 4.84060277 4.06242216 0 1 C0 0.67 0 0.34 0 0 Z " fill="#BA313C" transform="translate(38,204)"/>
<path d="M0 0 C2.66139355 5.32278711 -0.51505184 13.55519009 -2 19 C-2.33 19 -2.66 19 -3 19 C-2.88485851 16.95775363 -2.75742674 14.91619841 -2.625 12.875 C-2.55539062 11.73804688 -2.48578125 10.60109375 -2.4140625 9.4296875 C-2.00556124 6.04606384 -1.19032431 3.18387559 0 0 Z " fill="#565656" transform="translate(541,26)"/>
<path d="M0 0 C2.31 0 4.62 0 7 0 C4.53846154 4.8 4.53846154 4.8 1.8125 5.8125 C1.214375 5.874375 0.61625 5.93625 0 6 C0 4.02 0 2.04 0 0 Z " fill="#585858" transform="translate(827,209)"/>
<path d="M0 0 C2.97 0.99 5.94 1.98 9 3 C5.36654198 4.81672901 1.73757294 6.41871914 -2 8 C-2 7.01 -2 6.02 -2 5 C-1.01 5 -0.02 5 1 5 C0.67 3.35 0.34 1.7 0 0 Z " fill="#C6292B" transform="translate(290,106)"/>
<path d="M0 0 C0.66 0.33 1.32 0.66 2 1 C-1.75 4 -1.75 4 -4 4 C-4.33 5.65 -4.66 7.3 -5 9 C-5.33 8.01 -5.66 7.02 -6 6 C-6.99 5.67 -7.98 5.34 -9 5 C-7.54735962 4.1361871 -6.0876837 3.28419546 -4.625 2.4375 C-3.40683594 1.72400391 -3.40683594 1.72400391 -2.1640625 0.99609375 C-1.44992188 0.66738281 -0.73578125 0.33867187 0 0 Z " fill="#2F8CBB" transform="translate(26,207)"/>
<path d="M0 0 C2.1640625 0.77734375 2.1640625 0.77734375 4.625 1.9375 C5.44226562 2.31777344 6.25953125 2.69804687 7.1015625 3.08984375 C7.72804688 3.39019531 8.35453125 3.69054687 9 4 C5.59598052 5.13732426 3.22543336 4.83989957 -0.25 4.0625 C-1.14203125 3.86785156 -2.0340625 3.67320312 -2.953125 3.47265625 C-3.62859375 3.31667969 -4.3040625 3.16070312 -5 3 C-2 1 -2 1 0 0 Z " fill="#3D7CA8" transform="translate(33,204)"/>
<path d="M0 0 C2.31 0.33 4.62 0.66 7 1 C6.443125 1.268125 5.88625 1.53625 5.3125 1.8125 C2.9160243 2.99898377 2.9160243 2.99898377 0.4375 4.625 C-2 6 -2 6 -5 6 C-4.67 5.34 -4.34 4.68 -4 4 C-3.01 4 -2.02 4 -1 4 C-0.67 2.68 -0.34 1.36 0 0 Z " fill="#268AC4" transform="translate(126,201)"/>
<path d="M0 0 C0.66 0.99 1.32 1.98 2 3 C4.58380177 3.25030977 4.58380177 3.25030977 7 3 C7.33 3.66 7.66 4.32 8 5 C6.22992286 5.08114106 4.45877902 5.13925505 2.6875 5.1875 C1.70136719 5.22230469 0.71523438 5.25710937 -0.30078125 5.29296875 C-3 5 -3 5 -4.85546875 3.48828125 C-5.23316406 2.99714844 -5.61085938 2.50601563 -6 2 C-4.35 2 -2.7 2 -1 2 C-0.67 1.34 -0.34 0.68 0 0 Z " fill="#555555" transform="translate(644,177)"/>
<path d="M0 0 C0.66 0.33 1.32 0.66 2 1 C2.3690205 10.41002278 2.3690205 10.41002278 0 15 C-0.33 15 -0.66 15 -1 15 C-1.08961615 10.51919273 -0.8192294 6.40335804 0 2 C0 1.34 0 0.68 0 0 Z " fill="#C2292D" transform="translate(218,25)"/>
<path d="M0 0 C0.33 0 0.66 0 1 0 C0.88512252 1.58409994 0.75765492 3.16728963 0.625 4.75 C0.55539062 5.63171875 0.48578125 6.5134375 0.4140625 7.421875 C0.00149945 9.99066382 -0.71160957 11.75841015 -2 14 C-2.59732819 11.23735711 -3 8.83967231 -3 6 C-2.34 5.34 -1.68 4.68 -1 4 C-0.3574765 1.93125966 -0.3574765 1.93125966 0 0 Z " fill="#555556" transform="translate(831,252)"/>
<path d="M0 0 C0.66 0 1.32 0 2 0 C2.10183594 0.58265625 2.20367187 1.1653125 2.30859375 1.765625 C3.11517153 4.37219275 4.24157009 5.73535414 6.0625 7.75 C6.61035156 8.36359375 7.15820312 8.9771875 7.72265625 9.609375 C8.14417969 10.06828125 8.56570312 10.5271875 9 11 C5.78475695 9.59155282 3.67816132 7.89655214 1.25 5.375 C0.63640625 4.74335938 0.0228125 4.11171875 -0.609375 3.4609375 C-1.06828125 2.97882813 -1.5271875 2.49671875 -2 2 C-1.34 1.34 -0.68 0.68 0 0 Z " fill="#C2292D" transform="translate(162,182)"/>
<path d="M0 0 C0.66 0.33 1.32 0.66 2 1 C-1.42388092 4.82669043 -4.00724943 6.72278474 -9 8 C-6.14723863 5.06799526 -3.34920216 2.35684596 0 0 Z " fill="#C52829" transform="translate(175,37)"/>
<path d="M0 0 C0.33 0 0.66 0 1 0 C1.28975265 8.69257951 1.28975265 8.69257951 -1 12 C-1.66 12.66 -2.32 13.32 -3 14 C-2.40380045 9.13103697 -1.43023178 4.67209049 0 0 Z " fill="#BD292A" transform="translate(246,53)"/>
<path d="M0 0 C0.33 1.32 0.66 2.64 1 4 C-1 7 -1 7 -4 8 C-4 8.66 -4 9.32 -4 10 C-4.66 9.67 -5.32 9.34 -6 9 C-4.02 6.03 -2.04 3.06 0 0 Z " fill="#C3282C" transform="translate(157,54)"/>
<path d="M0 0 C0 3 0 3 -2.5 5.6875 C-3.325 6.450625 -4.15 7.21375 -5 8 C-5.99 7.01 -6.98 6.02 -8 5 C-4.04 2.525 -4.04 2.525 0 0 Z " fill="#CB292E" transform="translate(185,31)"/>
<path d="M0 0 C0.33 0.66 0.66 1.32 1 2 C-4.14285714 7.57142857 -4.14285714 7.57142857 -8 8 C-6.49776416 3.79373966 -3.71449966 2.26099979 0 0 Z " fill="#2C8AB9" transform="translate(15,213)"/>
<path d="M0 0 C1.4540625 0.0309375 1.4540625 0.0309375 2.9375 0.0625 C2.31875 0.35125 1.7 0.64 1.0625 0.9375 C-2.39662205 2.76879991 -3.00372527 3.87311477 -4.1875 7.6875 C-4.620625 9.358125 -4.620625 9.358125 -5.0625 11.0625 C-6.38076804 7.10769588 -5.35786133 4.94858399 -4.0625 1.0625 C-3.0625 0.0625 -3.0625 0.0625 0 0 Z " fill="#545454" transform="translate(572.0625,208.9375)"/>
<path d="M0 0 C4.62 0 9.24 0 14 0 C12.515 1.485 12.515 1.485 11 3 C8.30078125 2.85546875 8.30078125 2.85546875 5.3125 2.1875 C4.31863281 1.97480469 3.32476563 1.76210937 2.30078125 1.54296875 C1.54152344 1.36378906 0.78226563 1.18460938 0 1 C0 0.67 0 0.34 0 0 Z " fill="#515151" transform="translate(714,209)"/>
<path d="M0 0 C0.66 0 1.32 0 2 0 C2 0.66 2 1.32 2 2 C2.99 2.33 3.98 2.66 5 3 C0.375 7.875 0.375 7.875 -3 9 C-3 8.34 -3 7.68 -3 7 C-2.01 6.34 -1.02 5.68 0 5 C0.25030977 2.41619823 0.25030977 2.41619823 0 0 Z " fill="#C32728" transform="translate(232,196)"/>
<path d="M0 0 C3.465 1.98 3.465 1.98 7 4 C6.67 6.31 6.34 8.62 6 11 C5.67 11 5.34 11 5 11 C4.87625 10.030625 4.7525 9.06125 4.625 8.0625 C4.315625 6.5465625 4.315625 6.5465625 4 5 C3.34 4.67 2.68 4.34 2 4 C2 3.34 2 2.68 2 2 C1.34 2 0.68 2 0 2 C0 1.34 0 0.68 0 0 Z " fill="#525252" transform="translate(467,153)"/>
<path d="M0 0 C0.33 0 0.66 0 1 0 C1.33951619 1.56116819 1.67132544 3.12401338 2 4.6875 C2.185625 5.55761719 2.37125 6.42773438 2.5625 7.32421875 C2.98972047 9.93712964 3.07616201 12.35813038 3 15 C2.34 14.67 1.68 14.34 1 14 C0.33203125 11.09375 0.33203125 11.09375 -0.1875 7.5 C-0.36667969 6.3140625 -0.54585937 5.128125 -0.73046875 3.90625 C-0.81941406 2.9471875 -0.90835938 1.988125 -1 1 C-0.67 0.67 -0.34 0.34 0 0 Z " fill="#545454" transform="translate(557,113)"/>
<path d="M0 0 C-3.28804981 2.91227269 -5.59885603 4.49701212 -10 5 C-10 4.34 -10 3.68 -10 3 C-8.68 3 -7.36 3 -6 3 C-6 2.01 -6 1.02 -6 0 C-3.50907189 -1.24546405 -2.58919267 -0.7767578 0 0 Z " fill="#C0292B" transform="translate(320,100)"/>
<path d="M0 0 C2 0.875 2 0.875 3.25 3.4375 C3.4975 4.241875 3.745 5.04625 4 5.875 C0.62496331 4.6891763 -1.64722731 3.59926311 -4 0.875 C-2 -0.125 -2 -0.125 0 0 Z " fill="#C72B2C" transform="translate(219,98.125)"/>
<path d="M0 0 C1.38277746 3.84104849 0.84362303 7.06309254 0 11 C-1.546875 13.21875 -1.546875 13.21875 -3 15 C-2.69052329 13.06201479 -2.37731166 11.12462574 -2.0625 9.1875 C-1.88847656 8.10855469 -1.71445313 7.02960938 -1.53515625 5.91796875 C-1 3 -1 3 0 0 Z " fill="#C32C2B" transform="translate(142,84)"/>
<path d="M0 0 C0.99 0.99 1.98 1.98 3 3 C-2.625 6 -2.625 6 -6 6 C-6 5.34 -6 4.68 -6 4 C-5.38125 3.896875 -4.7625 3.79375 -4.125 3.6875 C-1.63473516 3.12474627 -1.63473516 3.12474627 0 0 Z " fill="#565656" transform="translate(784,282)"/>
<path d="M0 0 C0.93423645 3.01031744 1.04449911 3.86650268 0 7 C0.66 7 1.32 7 2 7 C2 7.66 2 8.32 2 9 C1.01 9.495 1.01 9.495 0 10 C-0.66 10.99 -1.32 11.98 -2 13 C-1.85851011 11.3954444 -1.71164314 9.79136233 -1.5625 8.1875 C-1.48128906 7.29417969 -1.40007813 6.40085938 -1.31640625 5.48046875 C-1 3 -1 3 0 0 Z " fill="#555555" transform="translate(755,224)"/>
<path d="M0 0 C2.96404505 2.80804268 5.44499019 5.18315774 7 9 C6.01 9.33 5.02 9.66 4 10 C3.896875 9.360625 3.79375 8.72125 3.6875 8.0625 C3.460625 7.381875 3.23375 6.70125 3 6 C2.01 5.67 1.02 5.34 0 5 C0 3.35 0 1.7 0 0 Z " fill="#C5292A" transform="translate(289,114)"/>
<path d="M0 0 C1.46067199 0.45082469 2.91848032 0.91093537 4.375 1.375 C5.18710937 1.63023438 5.99921875 1.88546875 6.8359375 2.1484375 C9 3 9 3 11 5 C9.741875 4.87625 8.48375 4.7525 7.1875 4.625 C6.12595703 4.52058594 6.12595703 4.52058594 5.04296875 4.4140625 C3 4 3 4 0 2 C0 1.34 0 0.68 0 0 Z " fill="#BC2C2F" transform="translate(309,81)"/>
<path d="M0 0 C1.24546405 2.49092811 0.7767578 3.41080733 0 6 C-1.98 6.33 -3.96 6.66 -6 7 C-4.02 4.69 -2.04 2.38 0 0 Z " fill="#C22C30" transform="translate(165,45)"/>
<path d="M0 0 C0.66 0 1.32 0 2 0 C1.67 3.3 1.34 6.6 1 10 C0.01 9.67 -0.98 9.34 -2 9 C-1.34 6.03 -0.68 3.06 0 0 Z " fill="#575759" transform="translate(862,227)"/>
<path d="M0 0 C3.63 0 7.26 0 11 0 C11 1.98 11 3.96 11 6 C10.67 5.360625 10.34 4.72125 10 4.0625 C6.97670168 0.9447236 4.26343276 1.27956936 0 1 C0 0.67 0 0.34 0 0 Z " fill="#545454" transform="translate(576,209)"/>
<path d="M0 0 C0.33 0 0.66 0 1 0 C1.04241723 2.33294775 1.04092937 4.66702567 1 7 C0 8 0 8 -2.06640625 8.09765625 C-2.89011719 8.08605469 -3.71382812 8.07445312 -4.5625 8.0625 C-5.38878906 8.05347656 -6.21507812 8.04445312 -7.06640625 8.03515625 C-7.70449219 8.02355469 -8.34257813 8.01195312 -9 8 C-9 7.67 -9 7.34 -9 7 C-6.69 7 -4.38 7 -2 7 C-2 6.34 -2 5.68 -2 5 C-1.34 5 -0.68 5 0 5 C0 3.35 0 1.7 0 0 Z " fill="#535353" transform="translate(540,173)"/>
<path d="M0 0 C0.99 0 1.98 0 3 0 C3.185625 0.9590625 3.185625 0.9590625 3.375 1.9375 C3.684375 2.9584375 3.684375 2.9584375 4 4 C4.66 4.33 5.32 4.66 6 5 C6 6.65 6 8.3 6 10 C3.25722422 6.80009492 1.3697164 3.99500618 0 0 Z " fill="#B93030" transform="translate(81,88)"/>
<path d="M0 0 C1.2978744 2.59574879 1.26333388 4.10332732 1 7 C-0.5 10.3125 -0.5 10.3125 -2 13 C-3.35068317 10.29863366 -2.73985317 8.86436954 -2.125 5.9375 C-1.94195313 5.03902344 -1.75890625 4.14054688 -1.5703125 3.21484375 C-1 1 -1 1 0 0 Z " fill="#545454" transform="translate(827,216)"/>
<path d="M0 0 C2.375 0.5625 2.375 0.5625 5 2 C6.3125 5.625 6.3125 5.625 7 9 C4.03595495 6.19195732 1.55500981 3.81684226 0 0 Z " fill="#BF292C" transform="translate(16,180)"/>
<path d="M0 0 C0.66 0.33 1.32 0.66 2 1 C1.34 2.65 0.68 4.3 0 6 C-0.66 6 -1.32 6 -2 6 C-2.33 7.32 -2.66 8.64 -3 10 C-4 7 -4 7 -3.22265625 5.17578125 C-2.1484375 3.45052083 -1.07421875 1.72526042 0 0 Z " fill="#C82A2C" transform="translate(255,35)"/>
<path d="M0 0 C2 1 2 1 3 3 C2.39421747 5.01927511 1.73080266 7.02253397 1 9 C0.34 8.34 -0.32 7.68 -1 7 C-0.625 3.375 -0.625 3.375 0 0 Z " fill="#575757" transform="translate(812,273)"/>
<path d="M0 0 C2 2 2 2 2 4 C1.34 4 0.68 4 0 4 C0 5.98 0 7.96 0 10 C-0.66 10 -1.32 10 -2 10 C-1.85950482 8.52031676 -1.71245174 7.04125484 -1.5625 5.5625 C-1.48128906 4.73878906 -1.40007813 3.91507813 -1.31640625 3.06640625 C-1 1 -1 1 0 0 Z " fill="#555555" transform="translate(564,235)"/>
<path d="M0 0 C1.32 0.33 2.64 0.66 4 1 C3.01 2.32 2.02 3.64 1 5 C0.01 4.67 -0.98 4.34 -2 4 C-2 3.34 -2 2.68 -2 2 C-1.34 2 -0.68 2 0 2 C0 1.34 0 0.68 0 0 Z " fill="#CC282F" transform="translate(331,202)"/>
<path d="M0 0 C0.99 0.33 1.98 0.66 3 1 C-1.39453125 5.00390625 -1.39453125 5.00390625 -3 6 C-3.99 5.67 -4.98 5.34 -6 5 C-2.25 2 -2.25 2 0 2 C0 1.34 0 0.68 0 0 Z " fill="#BB2D2F" transform="translate(99,189)"/>
<path d="M0 0 C0 2.97 0 5.94 0 9 C-1.95216435 7.04783565 -2.84826645 5.46800047 -4 3 C-1.125 0 -1.125 0 0 0 Z " fill="#595959" transform="translate(589,159)"/>
<path d="M0 0 C0.66 0 1.32 0 2 0 C2 0.99 2 1.98 2 3 C2.66 3 3.32 3 4 3 C3.67 5.31 3.34 7.62 3 10 C0.70366176 6.55549263 0.45983515 4.06187717 0 0 Z " fill="#CC2A2F" transform="translate(66,149)"/>
<path d="M0 0 C0.66 0.33 1.32 0.66 2 1 C-0.475 4.465 -0.475 4.465 -3 8 C-3.33 6.68 -3.66 5.36 -4 4 C-3.34 4 -2.68 4 -2 4 C-2 3.01 -2 2.02 -2 1 C-1.34 0.67 -0.68 0.34 0 0 Z " fill="#C32B2D" transform="translate(199,64)"/>
<path d="M0 0 C-2.98646769 1.99097846 -5.59687262 2.94124926 -9 4 C-9 3.01 -9 2.02 -9 1 C-5.8035914 -0.06546953 -3.34252724 -0.07427838 0 0 Z " fill="#3187B8" transform="translate(38,227)"/>
<path d="M0 0 C3.3 0 6.6 0 10 0 C9.67 0.66 9.34 1.32 9 2 C5.23375329 3.25541557 3.62811066 2.37061958 0 1 C0 0.67 0 0.34 0 0 Z " fill="#535353" transform="translate(668,209)"/>
<path d="M0 0 C0.33 0.66 0.66 1.32 1 2 C3.01669827 3.13350534 3.01669827 3.13350534 5 4 C4.01 4.99 3.02 5.98 2 7 C1.34 6.67 0.68 6.34 0 6 C-0.6875 3.5 -0.6875 3.5 -1 1 C-0.67 0.67 -0.34 0.34 0 0 Z " fill="#C83030" transform="translate(320,92)"/>
<path d="M0 0 C0.66 0 1.32 0 2 0 C3.1577506 3.47325181 3.06866652 6.36067448 3 10 C2.01 10.495 2.01 10.495 1 11 C0.67 7.37 0.34 3.74 0 0 Z " fill="#545454" transform="translate(528,59)"/>
</svg>
